<?xml version="1.0" encoding="utf-8" standalone="no"?>
<!DOCTYPE svg PUBLIC "-//W3C//DTD SVG 1.1//EN"
  "http://www.w3.org/Graphics/SVG/1.1/DTD/svg11.dtd">
<svg xmlns:xlink="http://www.w3.org/1999/xlink" width="792pt" height="792pt" viewBox="0 0 792 792" xmlns="http://www.w3.org/2000/svg" version="1.1">
 <metadata>
  <rdf:RDF xmlns:dc="http://purl.org/dc/elements/1.1/" xmlns:cc="http://creativecommons.org/ns#" xmlns:rdf="http://www.w3.org/1999/02/22-rdf-syntax-ns#">
   <cc:Work>
    <dc:type rdf:resource="http://purl.org/dc/dcmitype/StillImage"/>
    <dc:date>2024-02-08T13:04:06.894829</dc:date>
    <dc:format>image/svg+xml</dc:format>
    <dc:creator>
     <cc:Agent>
      <dc:title>Matplotlib v3.8.2, https://matplotlib.org/</dc:title>
     </cc:Agent>
    </dc:creator>
   </cc:Work>
  </rdf:RDF>
 </metadata>
 <defs>
  <style type="text/css">*{stroke-linejoin: round; stroke-linecap: butt}</style>
 </defs>
 <g id="figure_1">
  <g id="patch_1">
   <path d="M 0 792 
L 792 792 
L 792 0 
L 0 0 
z
" style="fill: #ffffff"/>
  </g>
  <g id="axes_1">
   <g id="patch_2">
    <path d="M 99 704.88 
L 712.8 704.88 
L 712.8 95.04 
L 99 95.04 
z
" style="fill: #ffffff"/>
   </g>
   <g id="PathCollection_1">
    <defs>
     <path id="m0faa0aec43" d="M 0 2.236068 
C 0.593012 2.236068 1.161816 2.000462 1.581139 1.581139 
C 2.000462 1.161816 2.236068 0.593012 2.236068 0 
C 2.236068 -0.593012 2.000462 -1.161816 1.581139 -1.581139 
C 1.161816 -2.000462 0.593012 -2.236068 0 -2.236068 
C -0.593012 -2.236068 -1.161816 -2.000462 -1.581139 -1.581139 
C -2.000462 -1.161816 -2.236068 -0.593012 -2.236068 0 
C -2.236068 0.593012 -2.000462 1.161816 -1.581139 1.581139 
C -1.161816 2.000462 -0.593012 2.236068 0 2.236068 
z
" style="stroke: #008000"/>
    </defs>
    <g clip-path="url(#pe4e451ebff)">
     <use xlink:href="#m0faa0aec43" x="137.151637" y="501.21433" style="fill: #008000; stroke: #008000"/>
     <use xlink:href="#m0faa0aec43" x="186.288739" y="620.569302" style="fill: #008000; stroke: #008000"/>
     <use xlink:href="#m0faa0aec43" x="169.692957" y="624.604132" style="fill: #008000; stroke: #008000"/>
     <use xlink:href="#m0faa0aec43" x="211.123859" y="600.73551" style="fill: #008000; stroke: #008000"/>
     <use xlink:href="#m0faa0aec43" x="175.238666" y="592.200441" style="fill: #008000; stroke: #008000"/>
     <use xlink:href="#m0faa0aec43" x="176.841368" y="594.512298" style="fill: #008000; stroke: #008000"/>
     <use xlink:href="#m0faa0aec43" x="140.034651" y="446.95148" style="fill: #008000; stroke: #008000"/>
     <use xlink:href="#m0faa0aec43" x="141.588589" y="502.248461" style="fill: #008000; stroke: #008000"/>
     <use xlink:href="#m0faa0aec43" x="441.227439" y="667.932751" style="fill: #008000; stroke: #008000"/>
     <use xlink:href="#m0faa0aec43" x="126.9" y="675.609701" style="fill: #008000; stroke: #008000"/>
     <use xlink:href="#m0faa0aec43" x="132.558452" y="338.807548" style="fill: #008000; stroke: #008000"/>
     <use xlink:href="#m0faa0aec43" x="137.652535" y="122.76" style="fill: #008000; stroke: #008000"/>
     <use xlink:href="#m0faa0aec43" x="475.862081" y="671.680323" style="fill: #008000; stroke: #008000"/>
     <use xlink:href="#m0faa0aec43" x="406.472424" y="673.388697" style="fill: #008000; stroke: #008000"/>
     <use xlink:href="#m0faa0aec43" x="412.510805" y="673.181261" style="fill: #008000; stroke: #008000"/>
     <use xlink:href="#m0faa0aec43" x="684.9" y="676.891066" style="fill: #008000; stroke: #008000"/>
     <use xlink:href="#m0faa0aec43" x="665.185758" y="676.879546" style="fill: #008000; stroke: #008000"/>
     <use xlink:href="#m0faa0aec43" x="269.445701" y="657.297017" style="fill: #008000; stroke: #008000"/>
     <use xlink:href="#m0faa0aec43" x="546.047232" y="676.1945" style="fill: #008000; stroke: #008000"/>
     <use xlink:href="#m0faa0aec43" x="459.530196" y="674.101833" style="fill: #008000; stroke: #008000"/>
     <use xlink:href="#m0faa0aec43" x="449.394539" y="673.050082" style="fill: #008000; stroke: #008000"/>
     <use xlink:href="#m0faa0aec43" x="443.038779" y="674.465044" style="fill: #008000; stroke: #008000"/>
     <use xlink:href="#m0faa0aec43" x="432.029536" y="674.577713" style="fill: #008000; stroke: #008000"/>
     <use xlink:href="#m0faa0aec43" x="453.98962" y="673.478527" style="fill: #008000; stroke: #008000"/>
     <use xlink:href="#m0faa0aec43" x="399.578382" y="671.223034" style="fill: #008000; stroke: #008000"/>
     <use xlink:href="#m0faa0aec43" x="444.983115" y="676.329449" style="fill: #008000; stroke: #008000"/>
    </g>
   </g>
   <g id="PathCollection_2">
    <defs>
     <path id="m13db0c2d4b" d="M 0 2.236068 
C 0.593012 2.236068 1.161816 2.000462 1.581139 1.581139 
C 2.000462 1.161816 2.236068 0.593012 2.236068 0 
C 2.236068 -0.593012 2.000462 -1.161816 1.581139 -1.581139 
C 1.161816 -2.000462 0.593012 -2.236068 0 -2.236068 
C -0.593012 -2.236068 -1.161816 -2.000462 -1.581139 -1.581139 
C -2.000462 -1.161816 -2.236068 -0.593012 -2.236068 0 
C -2.236068 0.593012 -2.000462 1.161816 -1.581139 1.581139 
C -1.161816 2.000462 -0.593012 2.236068 0 2.236068 
z
" style="stroke: #ffa500"/>
    </defs>
    <g clip-path="url(#pe4e451ebff)">
     <use xlink:href="#m13db0c2d4b" x="137.151637" y="606.867209" style="fill: #ffa500; stroke: #ffa500"/>
     <use xlink:href="#m13db0c2d4b" x="186.288739" y="628.253043" style="fill: #ffa500; stroke: #ffa500"/>
     <use xlink:href="#m13db0c2d4b" x="169.692957" y="627.083996" style="fill: #ffa500; stroke: #ffa500"/>
     <use xlink:href="#m13db0c2d4b" x="211.123859" y="618.231131" style="fill: #ffa500; stroke: #ffa500"/>
     <use xlink:href="#m13db0c2d4b" x="175.238666" y="616.76627" style="fill: #ffa500; stroke: #ffa500"/>
     <use xlink:href="#m13db0c2d4b" x="176.841368" y="636.667275" style="fill: #ffa500; stroke: #ffa500"/>
     <use xlink:href="#m13db0c2d4b" x="140.034651" y="522.021462" style="fill: #ffa500; stroke: #ffa500"/>
     <use xlink:href="#m13db0c2d4b" x="141.588589" y="571.462391" style="fill: #ffa500; stroke: #ffa500"/>
     <use xlink:href="#m13db0c2d4b" x="441.227439" y="669.666836" style="fill: #ffa500; stroke: #ffa500"/>
     <use xlink:href="#m13db0c2d4b" x="126.9" y="674.227318" style="fill: #ffa500; stroke: #ffa500"/>
     <use xlink:href="#m13db0c2d4b" x="132.558452" y="544.337031" style="fill: #ffa500; stroke: #ffa500"/>
     <use xlink:href="#m13db0c2d4b" x="137.652535" y="455.365532" style="fill: #ffa500; stroke: #ffa500"/>
     <use xlink:href="#m13db0c2d4b" x="475.862081" y="669.100725" style="fill: #ffa500; stroke: #ffa500"/>
     <use xlink:href="#m13db0c2d4b" x="406.472424" y="672.402963" style="fill: #ffa500; stroke: #ffa500"/>
     <use xlink:href="#m13db0c2d4b" x="412.510805" y="667.764735" style="fill: #ffa500; stroke: #ffa500"/>
     <use xlink:href="#m13db0c2d4b" x="684.9" y="676.757421" style="fill: #ffa500; stroke: #ffa500"/>
     <use xlink:href="#m13db0c2d4b" x="665.185758" y="676.762517" style="fill: #ffa500; stroke: #ffa500"/>
     <use xlink:href="#m13db0c2d4b" x="269.445701" y="654.837708" style="fill: #ffa500; stroke: #ffa500"/>
     <use xlink:href="#m13db0c2d4b" x="546.047232" y="676.61621" style="fill: #ffa500; stroke: #ffa500"/>
     <use xlink:href="#m13db0c2d4b" x="459.530196" y="673.941411" style="fill: #ffa500; stroke: #ffa500"/>
     <use xlink:href="#m13db0c2d4b" x="449.394539" y="672.55297" style="fill: #ffa500; stroke: #ffa500"/>
     <use xlink:href="#m13db0c2d4b" x="443.038779" y="674.118206" style="fill: #ffa500; stroke: #ffa500"/>
     <use xlink:href="#m13db0c2d4b" x="432.029536" y="672.248476" style="fill: #ffa500; stroke: #ffa500"/>
     <use xlink:href="#m13db0c2d4b" x="453.98962" y="672.328359" style="fill: #ffa500; stroke: #ffa500"/>
     <use xlink:href="#m13db0c2d4b" x="399.578382" y="670.030514" style="fill: #ffa500; stroke: #ffa500"/>
     <use xlink:href="#m13db0c2d4b" x="444.983115" y="676.156798" style="fill: #ffa500; stroke: #ffa500"/>
    </g>
   </g>
   <g id="PathCollection_3">
    <defs>
     <path id="m382c9f3c20" d="M 0 2.236068 
C 0.593012 2.236068 1.161816 2.000462 1.581139 1.581139 
C 2.000462 1.161816 2.236068 0.593012 2.236068 0 
C 2.236068 -0.593012 2.000462 -1.161816 1.581139 -1.581139 
C 1.161816 -2.000462 0.593012 -2.236068 0 -2.236068 
C -0.593012 -2.236068 -1.161816 -2.000462 -1.581139 -1.581139 
C -2.000462 -1.161816 -2.236068 -0.593012 -2.236068 0 
C -2.236068 0.593012 -2.000462 1.161816 -1.581139 1.581139 
C -1.161816 2.000462 -0.593012 2.236068 0 2.236068 
z
" style="stroke: #0000ff"/>
    </defs>
    <g clip-path="url(#pe4e451ebff)">
     <use xlink:href="#m382c9f3c20" x="137.151637" y="541.655172" style="fill: #0000ff; stroke: #0000ff"/>
     <use xlink:href="#m382c9f3c20" x="186.288739" y="640.317871" style="fill: #0000ff; stroke: #0000ff"/>
     <use xlink:href="#m382c9f3c20" x="169.692957" y="638.586715" style="fill: #0000ff; stroke: #0000ff"/>
     <use xlink:href="#m382c9f3c20" x="211.123859" y="654.229696" style="fill: #0000ff; stroke: #0000ff"/>
     <use xlink:href="#m382c9f3c20" x="175.238666" y="629.049114" style="fill: #0000ff; stroke: #0000ff"/>
     <use xlink:href="#m382c9f3c20" x="176.841368" y="623.766363" style="fill: #0000ff; stroke: #0000ff"/>
     <use xlink:href="#m382c9f3c20" x="140.034651" y="538.964715" style="fill: #0000ff; stroke: #0000ff"/>
     <use xlink:href="#m382c9f3c20" x="141.588589" y="575.498811" style="fill: #0000ff; stroke: #0000ff"/>
     <use xlink:href="#m382c9f3c20" x="441.227439" y="675.321441" style="fill: #0000ff; stroke: #0000ff"/>
     <use xlink:href="#m382c9f3c20" x="126.9" y="676.438228" style="fill: #0000ff; stroke: #0000ff"/>
     <use xlink:href="#m382c9f3c20" x="132.558452" y="471.839731" style="fill: #0000ff; stroke: #0000ff"/>
     <use xlink:href="#m382c9f3c20" x="137.652535" y="568.801997" style="fill: #0000ff; stroke: #0000ff"/>
     <use xlink:href="#m382c9f3c20" x="475.862081" y="675.360579" style="fill: #0000ff; stroke: #0000ff"/>
     <use xlink:href="#m382c9f3c20" x="406.472424" y="675.963309" style="fill: #0000ff; stroke: #0000ff"/>
     <use xlink:href="#m382c9f3c20" x="412.510805" y="675.034479" style="fill: #0000ff; stroke: #0000ff"/>
     <use xlink:href="#m382c9f3c20" x="684.9" y="676.900251" style="fill: #0000ff; stroke: #0000ff"/>
     <use xlink:href="#m382c9f3c20" x="665.185758" y="677.16" style="fill: #0000ff; stroke: #0000ff"/>
     <use xlink:href="#m382c9f3c20" x="269.445701" y="663.985879" style="fill: #0000ff; stroke: #0000ff"/>
     <use xlink:href="#m382c9f3c20" x="546.047232" y="676.835786" style="fill: #0000ff; stroke: #0000ff"/>
     <use xlink:href="#m382c9f3c20" x="459.530196" y="675.890097" style="fill: #0000ff; stroke: #0000ff"/>
     <use xlink:href="#m382c9f3c20" x="449.394539" y="674.855139" style="fill: #0000ff; stroke: #0000ff"/>
     <use xlink:href="#m382c9f3c20" x="443.038779" y="675.312417" style="fill: #0000ff; stroke: #0000ff"/>
     <use xlink:href="#m382c9f3c20" x="432.029536" y="675.139683" style="fill: #0000ff; stroke: #0000ff"/>
     <use xlink:href="#m382c9f3c20" x="453.98962" y="674.874516" style="fill: #0000ff; stroke: #0000ff"/>
     <use xlink:href="#m382c9f3c20" x="399.578382" y="673.009324" style="fill: #0000ff; stroke: #0000ff"/>
     <use xlink:href="#m382c9f3c20" x="444.983115" y="676.838559" style="fill: #0000ff; stroke: #0000ff"/>
    </g>
   </g>
   <g id="matplotlib.axis_1">
    <g id="xtick_1">
     <g id="line2d_1">
      <path d="M 120.804691 704.88 
L 120.804691 95.04 
" clip-path="url(#pe4e451ebff)" style="fill: none; stroke: #b0b0b0; stroke-width: 0.8; stroke-linecap: square"/>
     </g>
     <g id="line2d_2">
      <defs>
       <path id="m0053185f1b" d="M 0 0 
L 0 3.5 
" style="stroke: #000000; stroke-width: 0.8"/>
      </defs>
      <g>
       <use xlink:href="#m0053185f1b" x="120.804691" y="704.88" style="stroke: #000000; stroke-width: 0.8"/>
      </g>
     </g>
     <g id="text_1">
      <!-- 0 -->
      <g transform="translate(117.623441 719.478438) scale(0.1 -0.1)">
       <defs>
        <path id="DejaVuSans-30" d="M 2034 4250 
Q 1547 4250 1301 3770 
Q 1056 3291 1056 2328 
Q 1056 1369 1301 889 
Q 1547 409 2034 409 
Q 2525 409 2770 889 
Q 3016 1369 3016 2328 
Q 3016 3291 2770 3770 
Q 2525 4250 2034 4250 
z
M 2034 4750 
Q 2819 4750 3233 4129 
Q 3647 3509 3647 2328 
Q 3647 1150 3233 529 
Q 2819 -91 2034 -91 
Q 1250 -91 836 529 
Q 422 1150 422 2328 
Q 422 3509 836 4129 
Q 1250 4750 2034 4750 
z
" transform="scale(0.015625)"/>
       </defs>
       <use xlink:href="#DejaVuSans-30"/>
      </g>
     </g>
    </g>
    <g id="xtick_2">
     <g id="line2d_3">
      <path d="M 252.536187 704.88 
L 252.536187 95.04 
" clip-path="url(#pe4e451ebff)" style="fill: none; stroke: #b0b0b0; stroke-width: 0.8; stroke-linecap: square"/>
     </g>
     <g id="line2d_4">
      <g>
       <use xlink:href="#m0053185f1b" x="252.536187" y="704.88" style="stroke: #000000; stroke-width: 0.8"/>
      </g>
     </g>
     <g id="text_2">
      <!-- 10 -->
      <g transform="translate(246.173687 719.478438) scale(0.1 -0.1)">
       <defs>
        <path id="DejaVuSans-31" d="M 794 531 
L 1825 531 
L 1825 4091 
L 703 3866 
L 703 4441 
L 1819 4666 
L 2450 4666 
L 2450 531 
L 3481 531 
L 3481 0 
L 794 0 
L 794 531 
z
" transform="scale(0.015625)"/>
       </defs>
       <use xlink:href="#DejaVuSans-31"/>
       <use xlink:href="#DejaVuSans-30" x="63.623047"/>
      </g>
     </g>
    </g>
    <g id="xtick_3">
     <g id="line2d_5">
      <path d="M 384.267683 704.88 
L 384.267683 95.04 
" clip-path="url(#pe4e451ebff)" style="fill: none; stroke: #b0b0b0; stroke-width: 0.8; stroke-linecap: square"/>
     </g>
     <g id="line2d_6">
      <g>
       <use xlink:href="#m0053185f1b" x="384.267683" y="704.88" style="stroke: #000000; stroke-width: 0.8"/>
      </g>
     </g>
     <g id="text_3">
      <!-- 20 -->
      <g transform="translate(377.905183 719.478438) scale(0.1 -0.1)">
       <defs>
        <path id="DejaVuSans-32" d="M 1228 531 
L 3431 531 
L 3431 0 
L 469 0 
L 469 531 
Q 828 903 1448 1529 
Q 2069 2156 2228 2338 
Q 2531 2678 2651 2914 
Q 2772 3150 2772 3378 
Q 2772 3750 2511 3984 
Q 2250 4219 1831 4219 
Q 1534 4219 1204 4116 
Q 875 4013 500 3803 
L 500 4441 
Q 881 4594 1212 4672 
Q 1544 4750 1819 4750 
Q 2544 4750 2975 4387 
Q 3406 4025 3406 3419 
Q 3406 3131 3298 2873 
Q 3191 2616 2906 2266 
Q 2828 2175 2409 1742 
Q 1991 1309 1228 531 
z
" transform="scale(0.015625)"/>
       </defs>
       <use xlink:href="#DejaVuSans-32"/>
       <use xlink:href="#DejaVuSans-30" x="63.623047"/>
      </g>
     </g>
    </g>
    <g id="xtick_4">
     <g id="line2d_7">
      <path d="M 515.99918 704.88 
L 515.99918 95.04 
" clip-path="url(#pe4e451ebff)" style="fill: none; stroke: #b0b0b0; stroke-width: 0.8; stroke-linecap: square"/>
     </g>
     <g id="line2d_8">
      <g>
       <use xlink:href="#m0053185f1b" x="515.99918" y="704.88" style="stroke: #000000; stroke-width: 0.8"/>
      </g>
     </g>
     <g id="text_4">
      <!-- 30 -->
      <g transform="translate(509.63668 719.478438) scale(0.1 -0.1)">
       <defs>
        <path id="DejaVuSans-33" d="M 2597 2516 
Q 3050 2419 3304 2112 
Q 3559 1806 3559 1356 
Q 3559 666 3084 287 
Q 2609 -91 1734 -91 
Q 1441 -91 1130 -33 
Q 819 25 488 141 
L 488 750 
Q 750 597 1062 519 
Q 1375 441 1716 441 
Q 2309 441 2620 675 
Q 2931 909 2931 1356 
Q 2931 1769 2642 2001 
Q 2353 2234 1838 2234 
L 1294 2234 
L 1294 2753 
L 1863 2753 
Q 2328 2753 2575 2939 
Q 2822 3125 2822 3475 
Q 2822 3834 2567 4026 
Q 2313 4219 1838 4219 
Q 1578 4219 1281 4162 
Q 984 4106 628 3988 
L 628 4550 
Q 988 4650 1302 4700 
Q 1616 4750 1894 4750 
Q 2613 4750 3031 4423 
Q 3450 4097 3450 3541 
Q 3450 3153 3228 2886 
Q 3006 2619 2597 2516 
z
" transform="scale(0.015625)"/>
       </defs>
       <use xlink:href="#DejaVuSans-33"/>
       <use xlink:href="#DejaVuSans-30" x="63.623047"/>
      </g>
     </g>
    </g>
    <g id="xtick_5">
     <g id="line2d_9">
      <path d="M 647.730676 704.88 
L 647.730676 95.04 
" clip-path="url(#pe4e451ebff)" style="fill: none; stroke: #b0b0b0; stroke-width: 0.8; stroke-linecap: square"/>
     </g>
     <g id="line2d_10">
      <g>
       <use xlink:href="#m0053185f1b" x="647.730676" y="704.88" style="stroke: #000000; stroke-width: 0.8"/>
      </g>
     </g>
     <g id="text_5">
      <!-- 40 -->
      <g transform="translate(641.368176 719.478438) scale(0.1 -0.1)">
       <defs>
        <path id="DejaVuSans-34" d="M 2419 4116 
L 825 1625 
L 2419 1625 
L 2419 4116 
z
M 2253 4666 
L 3047 4666 
L 3047 1625 
L 3713 1625 
L 3713 1100 
L 3047 1100 
L 3047 0 
L 2419 0 
L 2419 1100 
L 313 1100 
L 313 1709 
L 2253 4666 
z
" transform="scale(0.015625)"/>
       </defs>
       <use xlink:href="#DejaVuSans-34"/>
       <use xlink:href="#DejaVuSans-30" x="63.623047"/>
      </g>
     </g>
    </g>
    <g id="text_6">
     <!-- Distance [km] -->
     <g transform="translate(370.78125 733.156563) scale(0.1 -0.1)">
      <defs>
       <path id="DejaVuSans-44" d="M 1259 4147 
L 1259 519 
L 2022 519 
Q 2988 519 3436 956 
Q 3884 1394 3884 2338 
Q 3884 3275 3436 3711 
Q 2988 4147 2022 4147 
L 1259 4147 
z
M 628 4666 
L 1925 4666 
Q 3281 4666 3915 4102 
Q 4550 3538 4550 2338 
Q 4550 1131 3912 565 
Q 3275 0 1925 0 
L 628 0 
L 628 4666 
z
" transform="scale(0.015625)"/>
       <path id="DejaVuSans-69" d="M 603 3500 
L 1178 3500 
L 1178 0 
L 603 0 
L 603 3500 
z
M 603 4863 
L 1178 4863 
L 1178 4134 
L 603 4134 
L 603 4863 
z
" transform="scale(0.015625)"/>
       <path id="DejaVuSans-73" d="M 2834 3397 
L 2834 2853 
Q 2591 2978 2328 3040 
Q 2066 3103 1784 3103 
Q 1356 3103 1142 2972 
Q 928 2841 928 2578 
Q 928 2378 1081 2264 
Q 1234 2150 1697 2047 
L 1894 2003 
Q 2506 1872 2764 1633 
Q 3022 1394 3022 966 
Q 3022 478 2636 193 
Q 2250 -91 1575 -91 
Q 1294 -91 989 -36 
Q 684 19 347 128 
L 347 722 
Q 666 556 975 473 
Q 1284 391 1588 391 
Q 1994 391 2212 530 
Q 2431 669 2431 922 
Q 2431 1156 2273 1281 
Q 2116 1406 1581 1522 
L 1381 1569 
Q 847 1681 609 1914 
Q 372 2147 372 2553 
Q 372 3047 722 3315 
Q 1072 3584 1716 3584 
Q 2034 3584 2315 3537 
Q 2597 3491 2834 3397 
z
" transform="scale(0.015625)"/>
       <path id="DejaVuSans-74" d="M 1172 4494 
L 1172 3500 
L 2356 3500 
L 2356 3053 
L 1172 3053 
L 1172 1153 
Q 1172 725 1289 603 
Q 1406 481 1766 481 
L 2356 481 
L 2356 0 
L 1766 0 
Q 1100 0 847 248 
Q 594 497 594 1153 
L 594 3053 
L 172 3053 
L 172 3500 
L 594 3500 
L 594 4494 
L 1172 4494 
z
" transform="scale(0.015625)"/>
       <path id="DejaVuSans-61" d="M 2194 1759 
Q 1497 1759 1228 1600 
Q 959 1441 959 1056 
Q 959 750 1161 570 
Q 1363 391 1709 391 
Q 2188 391 2477 730 
Q 2766 1069 2766 1631 
L 2766 1759 
L 2194 1759 
z
M 3341 1997 
L 3341 0 
L 2766 0 
L 2766 531 
Q 2569 213 2275 61 
Q 1981 -91 1556 -91 
Q 1019 -91 701 211 
Q 384 513 384 1019 
Q 384 1609 779 1909 
Q 1175 2209 1959 2209 
L 2766 2209 
L 2766 2266 
Q 2766 2663 2505 2880 
Q 2244 3097 1772 3097 
Q 1472 3097 1187 3025 
Q 903 2953 641 2809 
L 641 3341 
Q 956 3463 1253 3523 
Q 1550 3584 1831 3584 
Q 2591 3584 2966 3190 
Q 3341 2797 3341 1997 
z
" transform="scale(0.015625)"/>
       <path id="DejaVuSans-6e" d="M 3513 2113 
L 3513 0 
L 2938 0 
L 2938 2094 
Q 2938 2591 2744 2837 
Q 2550 3084 2163 3084 
Q 1697 3084 1428 2787 
Q 1159 2491 1159 1978 
L 1159 0 
L 581 0 
L 581 3500 
L 1159 3500 
L 1159 2956 
Q 1366 3272 1645 3428 
Q 1925 3584 2291 3584 
Q 2894 3584 3203 3211 
Q 3513 2838 3513 2113 
z
" transform="scale(0.015625)"/>
       <path id="DejaVuSans-63" d="M 3122 3366 
L 3122 2828 
Q 2878 2963 2633 3030 
Q 2388 3097 2138 3097 
Q 1578 3097 1268 2742 
Q 959 2388 959 1747 
Q 959 1106 1268 751 
Q 1578 397 2138 397 
Q 2388 397 2633 464 
Q 2878 531 3122 666 
L 3122 134 
Q 2881 22 2623 -34 
Q 2366 -91 2075 -91 
Q 1284 -91 818 406 
Q 353 903 353 1747 
Q 353 2603 823 3093 
Q 1294 3584 2113 3584 
Q 2378 3584 2631 3529 
Q 2884 3475 3122 3366 
z
" transform="scale(0.015625)"/>
       <path id="DejaVuSans-65" d="M 3597 1894 
L 3597 1613 
L 953 1613 
Q 991 1019 1311 708 
Q 1631 397 2203 397 
Q 2534 397 2845 478 
Q 3156 559 3463 722 
L 3463 178 
Q 3153 47 2828 -22 
Q 2503 -91 2169 -91 
Q 1331 -91 842 396 
Q 353 884 353 1716 
Q 353 2575 817 3079 
Q 1281 3584 2069 3584 
Q 2775 3584 3186 3129 
Q 3597 2675 3597 1894 
z
M 3022 2063 
Q 3016 2534 2758 2815 
Q 2500 3097 2075 3097 
Q 1594 3097 1305 2825 
Q 1016 2553 972 2059 
L 3022 2063 
z
" transform="scale(0.015625)"/>
       <path id="DejaVuSans-20" transform="scale(0.015625)"/>
       <path id="DejaVuSans-5b" d="M 550 4863 
L 1875 4863 
L 1875 4416 
L 1125 4416 
L 1125 -397 
L 1875 -397 
L 1875 -844 
L 550 -844 
L 550 4863 
z
" transform="scale(0.015625)"/>
       <path id="DejaVuSans-6b" d="M 581 4863 
L 1159 4863 
L 1159 1991 
L 2875 3500 
L 3609 3500 
L 1753 1863 
L 3688 0 
L 2938 0 
L 1159 1709 
L 1159 0 
L 581 0 
L 581 4863 
z
" transform="scale(0.015625)"/>
       <path id="DejaVuSans-6d" d="M 3328 2828 
Q 3544 3216 3844 3400 
Q 4144 3584 4550 3584 
Q 5097 3584 5394 3201 
Q 5691 2819 5691 2113 
L 5691 0 
L 5113 0 
L 5113 2094 
Q 5113 2597 4934 2840 
Q 4756 3084 4391 3084 
Q 3944 3084 3684 2787 
Q 3425 2491 3425 1978 
L 3425 0 
L 2847 0 
L 2847 2094 
Q 2847 2600 2669 2842 
Q 2491 3084 2119 3084 
Q 1678 3084 1418 2786 
Q 1159 2488 1159 1978 
L 1159 0 
L 581 0 
L 581 3500 
L 1159 3500 
L 1159 2956 
Q 1356 3278 1631 3431 
Q 1906 3584 2284 3584 
Q 2666 3584 2933 3390 
Q 3200 3197 3328 2828 
z
" transform="scale(0.015625)"/>
       <path id="DejaVuSans-5d" d="M 1947 4863 
L 1947 -844 
L 622 -844 
L 622 -397 
L 1369 -397 
L 1369 4416 
L 622 4416 
L 622 4863 
L 1947 4863 
z
" transform="scale(0.015625)"/>
      </defs>
      <use xlink:href="#DejaVuSans-44"/>
      <use xlink:href="#DejaVuSans-69" x="77.001953"/>
      <use xlink:href="#DejaVuSans-73" x="104.785156"/>
      <use xlink:href="#DejaVuSans-74" x="156.884766"/>
      <use xlink:href="#DejaVuSans-61" x="196.09375"/>
      <use xlink:href="#DejaVuSans-6e" x="257.373047"/>
      <use xlink:href="#DejaVuSans-63" x="320.751953"/>
      <use xlink:href="#DejaVuSans-65" x="375.732422"/>
      <use xlink:href="#DejaVuSans-20" x="437.255859"/>
      <use xlink:href="#DejaVuSans-5b" x="469.042969"/>
      <use xlink:href="#DejaVuSans-6b" x="508.056641"/>
      <use xlink:href="#DejaVuSans-6d" x="565.966797"/>
      <use xlink:href="#DejaVuSans-5d" x="663.378906"/>
     </g>
    </g>
   </g>
   <g id="matplotlib.axis_2">
    <g id="ytick_1">
     <g id="line2d_11">
      <path d="M 99 677.70157 
L 712.8 677.70157 
" clip-path="url(#pe4e451ebff)" style="fill: none; stroke: #b0b0b0; stroke-width: 0.8; stroke-linecap: square"/>
     </g>
     <g id="line2d_12">
      <defs>
       <path id="m09ed85b23d" d="M 0 0 
L -3.5 0 
" style="stroke: #000000; stroke-width: 0.8"/>
      </defs>
      <g>
       <use xlink:href="#m09ed85b23d" x="99" y="677.70157" style="stroke: #000000; stroke-width: 0.8"/>
      </g>
     </g>
     <g id="text_7">
      <!-- 0.00000 -->
      <g transform="translate(50.646875 681.500789) scale(0.1 -0.1)">
       <defs>
        <path id="DejaVuSans-2e" d="M 684 794 
L 1344 794 
L 1344 0 
L 684 0 
L 684 794 
z
" transform="scale(0.015625)"/>
       </defs>
       <use xlink:href="#DejaVuSans-30"/>
       <use xlink:href="#DejaVuSans-2e" x="63.623047"/>
       <use xlink:href="#DejaVuSans-30" x="95.410156"/>
       <use xlink:href="#DejaVuSans-30" x="159.033203"/>
       <use xlink:href="#DejaVuSans-30" x="222.65625"/>
       <use xlink:href="#DejaVuSans-30" x="286.279297"/>
       <use xlink:href="#DejaVuSans-30" x="349.902344"/>
      </g>
     </g>
    </g>
    <g id="ytick_2">
     <g id="line2d_13">
      <path d="M 99 561.800431 
L 712.8 561.800431 
" clip-path="url(#pe4e451ebff)" style="fill: none; stroke: #b0b0b0; stroke-width: 0.8; stroke-linecap: square"/>
     </g>
     <g id="line2d_14">
      <g>
       <use xlink:href="#m09ed85b23d" x="99" y="561.800431" style="stroke: #000000; stroke-width: 0.8"/>
      </g>
     </g>
     <g id="text_8">
      <!-- 0.00005 -->
      <g transform="translate(50.646875 565.59965) scale(0.1 -0.1)">
       <defs>
        <path id="DejaVuSans-35" d="M 691 4666 
L 3169 4666 
L 3169 4134 
L 1269 4134 
L 1269 2991 
Q 1406 3038 1543 3061 
Q 1681 3084 1819 3084 
Q 2600 3084 3056 2656 
Q 3513 2228 3513 1497 
Q 3513 744 3044 326 
Q 2575 -91 1722 -91 
Q 1428 -91 1123 -41 
Q 819 9 494 109 
L 494 744 
Q 775 591 1075 516 
Q 1375 441 1709 441 
Q 2250 441 2565 725 
Q 2881 1009 2881 1497 
Q 2881 1984 2565 2268 
Q 2250 2553 1709 2553 
Q 1456 2553 1204 2497 
Q 953 2441 691 2322 
L 691 4666 
z
" transform="scale(0.015625)"/>
       </defs>
       <use xlink:href="#DejaVuSans-30"/>
       <use xlink:href="#DejaVuSans-2e" x="63.623047"/>
       <use xlink:href="#DejaVuSans-30" x="95.410156"/>
       <use xlink:href="#DejaVuSans-30" x="159.033203"/>
       <use xlink:href="#DejaVuSans-30" x="222.65625"/>
       <use xlink:href="#DejaVuSans-30" x="286.279297"/>
       <use xlink:href="#DejaVuSans-35" x="349.902344"/>
      </g>
     </g>
    </g>
    <g id="ytick_3">
     <g id="line2d_15">
      <path d="M 99 445.899292 
L 712.8 445.899292 
" clip-path="url(#pe4e451ebff)" style="fill: none; stroke: #b0b0b0; stroke-width: 0.8; stroke-linecap: square"/>
     </g>
     <g id="line2d_16">
      <g>
       <use xlink:href="#m09ed85b23d" x="99" y="445.899292" style="stroke: #000000; stroke-width: 0.8"/>
      </g>
     </g>
     <g id="text_9">
      <!-- 0.00010 -->
      <g transform="translate(50.646875 449.698511) scale(0.1 -0.1)">
       <use xlink:href="#DejaVuSans-30"/>
       <use xlink:href="#DejaVuSans-2e" x="63.623047"/>
       <use xlink:href="#DejaVuSans-30" x="95.410156"/>
       <use xlink:href="#DejaVuSans-30" x="159.033203"/>
       <use xlink:href="#DejaVuSans-30" x="222.65625"/>
       <use xlink:href="#DejaVuSans-31" x="286.279297"/>
       <use xlink:href="#DejaVuSans-30" x="349.902344"/>
      </g>
     </g>
    </g>
    <g id="ytick_4">
     <g id="line2d_17">
      <path d="M 99 329.998154 
L 712.8 329.998154 
" clip-path="url(#pe4e451ebff)" style="fill: none; stroke: #b0b0b0; stroke-width: 0.8; stroke-linecap: square"/>
     </g>
     <g id="line2d_18">
      <g>
       <use xlink:href="#m09ed85b23d" x="99" y="329.998154" style="stroke: #000000; stroke-width: 0.8"/>
      </g>
     </g>
     <g id="text_10">
      <!-- 0.00015 -->
      <g transform="translate(50.646875 333.797372) scale(0.1 -0.1)">
       <use xlink:href="#DejaVuSans-30"/>
       <use xlink:href="#DejaVuSans-2e" x="63.623047"/>
       <use xlink:href="#DejaVuSans-30" x="95.410156"/>
       <use xlink:href="#DejaVuSans-30" x="159.033203"/>
       <use xlink:href="#DejaVuSans-30" x="222.65625"/>
       <use xlink:href="#DejaVuSans-31" x="286.279297"/>
       <use xlink:href="#DejaVuSans-35" x="349.902344"/>
      </g>
     </g>
    </g>
    <g id="ytick_5">
     <g id="line2d_19">
      <path d="M 99 214.097015 
L 712.8 214.097015 
" clip-path="url(#pe4e451ebff)" style="fill: none; stroke: #b0b0b0; stroke-width: 0.8; stroke-linecap: square"/>
     </g>
     <g id="line2d_20">
      <g>
       <use xlink:href="#m09ed85b23d" x="99" y="214.097015" style="stroke: #000000; stroke-width: 0.8"/>
      </g>
     </g>
     <g id="text_11">
      <!-- 0.00020 -->
      <g transform="translate(50.646875 217.896234) scale(0.1 -0.1)">
       <use xlink:href="#DejaVuSans-30"/>
       <use xlink:href="#DejaVuSans-2e" x="63.623047"/>
       <use xlink:href="#DejaVuSans-30" x="95.410156"/>
       <use xlink:href="#DejaVuSans-30" x="159.033203"/>
       <use xlink:href="#DejaVuSans-30" x="222.65625"/>
       <use xlink:href="#DejaVuSans-32" x="286.279297"/>
       <use xlink:href="#DejaVuSans-30" x="349.902344"/>
      </g>
     </g>
    </g>
    <g id="ytick_6">
     <g id="line2d_21">
      <path d="M 99 98.195876 
L 712.8 98.195876 
" clip-path="url(#pe4e451ebff)" style="fill: none; stroke: #b0b0b0; stroke-width: 0.8; stroke-linecap: square"/>
     </g>
     <g id="line2d_22">
      <g>
       <use xlink:href="#m09ed85b23d" x="99" y="98.195876" style="stroke: #000000; stroke-width: 0.8"/>
      </g>
     </g>
     <g id="text_12">
      <!-- 0.00025 -->
      <g transform="translate(50.646875 101.995095) scale(0.1 -0.1)">
       <use xlink:href="#DejaVuSans-30"/>
       <use xlink:href="#DejaVuSans-2e" x="63.623047"/>
       <use xlink:href="#DejaVuSans-30" x="95.410156"/>
       <use xlink:href="#DejaVuSans-30" x="159.033203"/>
       <use xlink:href="#DejaVuSans-30" x="222.65625"/>
       <use xlink:href="#DejaVuSans-32" x="286.279297"/>
       <use xlink:href="#DejaVuSans-35" x="349.902344"/>
      </g>
     </g>
    </g>
    <g id="text_13">
     <!-- Amplitude -->
     <g transform="translate(44.567187 425.582656) rotate(-90) scale(0.1 -0.1)">
      <defs>
       <path id="DejaVuSans-41" d="M 2188 4044 
L 1331 1722 
L 3047 1722 
L 2188 4044 
z
M 1831 4666 
L 2547 4666 
L 4325 0 
L 3669 0 
L 3244 1197 
L 1141 1197 
L 716 0 
L 50 0 
L 1831 4666 
z
" transform="scale(0.015625)"/>
       <path id="DejaVuSans-70" d="M 1159 525 
L 1159 -1331 
L 581 -1331 
L 581 3500 
L 1159 3500 
L 1159 2969 
Q 1341 3281 1617 3432 
Q 1894 3584 2278 3584 
Q 2916 3584 3314 3078 
Q 3713 2572 3713 1747 
Q 3713 922 3314 415 
Q 2916 -91 2278 -91 
Q 1894 -91 1617 61 
Q 1341 213 1159 525 
z
M 3116 1747 
Q 3116 2381 2855 2742 
Q 2594 3103 2138 3103 
Q 1681 3103 1420 2742 
Q 1159 2381 1159 1747 
Q 1159 1113 1420 752 
Q 1681 391 2138 391 
Q 2594 391 2855 752 
Q 3116 1113 3116 1747 
z
" transform="scale(0.015625)"/>
       <path id="DejaVuSans-6c" d="M 603 4863 
L 1178 4863 
L 1178 0 
L 603 0 
L 603 4863 
z
" transform="scale(0.015625)"/>
       <path id="DejaVuSans-75" d="M 544 1381 
L 544 3500 
L 1119 3500 
L 1119 1403 
Q 1119 906 1312 657 
Q 1506 409 1894 409 
Q 2359 409 2629 706 
Q 2900 1003 2900 1516 
L 2900 3500 
L 3475 3500 
L 3475 0 
L 2900 0 
L 2900 538 
Q 2691 219 2414 64 
Q 2138 -91 1772 -91 
Q 1169 -91 856 284 
Q 544 659 544 1381 
z
M 1991 3584 
L 1991 3584 
z
" transform="scale(0.015625)"/>
       <path id="DejaVuSans-64" d="M 2906 2969 
L 2906 4863 
L 3481 4863 
L 3481 0 
L 2906 0 
L 2906 525 
Q 2725 213 2448 61 
Q 2172 -91 1784 -91 
Q 1150 -91 751 415 
Q 353 922 353 1747 
Q 353 2572 751 3078 
Q 1150 3584 1784 3584 
Q 2172 3584 2448 3432 
Q 2725 3281 2906 2969 
z
M 947 1747 
Q 947 1113 1208 752 
Q 1469 391 1925 391 
Q 2381 391 2643 752 
Q 2906 1113 2906 1747 
Q 2906 2381 2643 2742 
Q 2381 3103 1925 3103 
Q 1469 3103 1208 2742 
Q 947 2381 947 1747 
z
" transform="scale(0.015625)"/>
      </defs>
      <use xlink:href="#DejaVuSans-41"/>
      <use xlink:href="#DejaVuSans-6d" x="68.408203"/>
      <use xlink:href="#DejaVuSans-70" x="165.820312"/>
      <use xlink:href="#DejaVuSans-6c" x="229.296875"/>
      <use xlink:href="#DejaVuSans-69" x="257.080078"/>
      <use xlink:href="#DejaVuSans-74" x="284.863281"/>
      <use xlink:href="#DejaVuSans-75" x="324.072266"/>
      <use xlink:href="#DejaVuSans-64" x="387.451172"/>
      <use xlink:href="#DejaVuSans-65" x="450.927734"/>
     </g>
    </g>
   </g>
   <g id="patch_3">
    <path d="M 99 704.88 
L 99 95.04 
" style="fill: none; stroke: #000000; stroke-width: 0.8; stroke-linejoin: miter; stroke-linecap: square"/>
   </g>
   <g id="patch_4">
    <path d="M 712.8 704.88 
L 712.8 95.04 
" style="fill: none; stroke: #000000; stroke-width: 0.8; stroke-linejoin: miter; stroke-linecap: square"/>
   </g>
   <g id="patch_5">
    <path d="M 99 704.88 
L 712.8 704.88 
" style="fill: none; stroke: #000000; stroke-width: 0.8; stroke-linejoin: miter; stroke-linecap: square"/>
   </g>
   <g id="patch_6">
    <path d="M 99 95.04 
L 712.8 95.04 
" style="fill: none; stroke: #000000; stroke-width: 0.8; stroke-linejoin: miter; stroke-linecap: square"/>
   </g>
   <g id="legend_1">
    <g id="patch_7">
     <path d="M 651.278125 147.074375 
L 705.8 147.074375 
Q 707.8 147.074375 707.8 145.074375 
L 707.8 102.04 
Q 707.8 100.04 705.8 100.04 
L 651.278125 100.04 
Q 649.278125 100.04 649.278125 102.04 
L 649.278125 145.074375 
Q 649.278125 147.074375 651.278125 147.074375 
z
" style="fill: #ffffff; opacity: 0.8; stroke: #cccccc; stroke-linejoin: miter"/>
    </g>
    <g id="PathCollection_4">
     <g>
      <use xlink:href="#m0faa0aec43" x="663.278125" y="109.013437" style="fill: #008000; stroke: #008000"/>
     </g>
    </g>
    <g id="text_14">
     <!-- HHE -->
     <g transform="translate(681.278125 111.638437) scale(0.1 -0.1)">
      <defs>
       <path id="DejaVuSans-48" d="M 628 4666 
L 1259 4666 
L 1259 2753 
L 3553 2753 
L 3553 4666 
L 4184 4666 
L 4184 0 
L 3553 0 
L 3553 2222 
L 1259 2222 
L 1259 0 
L 628 0 
L 628 4666 
z
" transform="scale(0.015625)"/>
       <path id="DejaVuSans-45" d="M 628 4666 
L 3578 4666 
L 3578 4134 
L 1259 4134 
L 1259 2753 
L 3481 2753 
L 3481 2222 
L 1259 2222 
L 1259 531 
L 3634 531 
L 3634 0 
L 628 0 
L 628 4666 
z
" transform="scale(0.015625)"/>
      </defs>
      <use xlink:href="#DejaVuSans-48"/>
      <use xlink:href="#DejaVuSans-48" x="75.195312"/>
      <use xlink:href="#DejaVuSans-45" x="150.390625"/>
     </g>
    </g>
    <g id="PathCollection_5">
     <g>
      <use xlink:href="#m13db0c2d4b" x="663.278125" y="123.691562" style="fill: #ffa500; stroke: #ffa500"/>
     </g>
    </g>
    <g id="text_15">
     <!-- HHN -->
     <g transform="translate(681.278125 126.316562) scale(0.1 -0.1)">
      <defs>
       <path id="DejaVuSans-4e" d="M 628 4666 
L 1478 4666 
L 3547 763 
L 3547 4666 
L 4159 4666 
L 4159 0 
L 3309 0 
L 1241 3903 
L 1241 0 
L 628 0 
L 628 4666 
z
" transform="scale(0.015625)"/>
      </defs>
      <use xlink:href="#DejaVuSans-48"/>
      <use xlink:href="#DejaVuSans-48" x="75.195312"/>
      <use xlink:href="#DejaVuSans-4e" x="150.390625"/>
     </g>
    </g>
    <g id="PathCollection_6">
     <g>
      <use xlink:href="#m382c9f3c20" x="663.278125" y="138.369687" style="fill: #0000ff; stroke: #0000ff"/>
     </g>
    </g>
    <g id="text_16">
     <!-- HHZ -->
     <g transform="translate(681.278125 140.994687) scale(0.1 -0.1)">
      <defs>
       <path id="DejaVuSans-5a" d="M 359 4666 
L 4025 4666 
L 4025 4184 
L 1075 531 
L 4097 531 
L 4097 0 
L 288 0 
L 288 481 
L 3238 4134 
L 359 4134 
L 359 4666 
z
" transform="scale(0.015625)"/>
      </defs>
      <use xlink:href="#DejaVuSans-48"/>
      <use xlink:href="#DejaVuSans-48" x="75.195312"/>
      <use xlink:href="#DejaVuSans-5a" x="150.390625"/>
     </g>
    </g>
   </g>
  </g>
 </g>
 <defs>
  <clipPath id="pe4e451ebff">
   <rect x="99" y="95.04" width="613.8" height="609.84"/>
  </clipPath>
 </defs>
</svg>
